<svg width="24" height="24" viewBox="0 0 24 24" fill="none" xmlns="http://www.w3.org/2000/svg">
<path fill-rule="evenodd" clip-rule="evenodd" d="M5 7.33333C5 6.71449 5.24583 6.121 5.68342 5.68342C6.121 5.24583 6.71449 5 7.33333 5H9.08333C9.70217 5 10.2957 5.24583 10.7332 5.68342C11.1708 6.121 11.4167 6.71449 11.4167 7.33333V9.08333C11.4167 9.70217 11.1708 10.2957 10.7332 10.7332C10.2957 11.1708 9.70217 11.4167 9.08333 11.4167H7.33333C6.71449 11.4167 6.121 11.1708 5.68342 10.7332C5.24583 10.2957 5 9.70217 5 9.08333V7.33333ZM12.5833 7.33333C12.5833 6.71449 12.8292 6.121 13.2668 5.68342C13.7043 5.24583 14.2978 5 14.9167 5H16.6667C17.2855 5 17.879 5.24583 18.3166 5.68342C18.7542 6.121 19 6.71449 19 7.33333V9.08333C19 9.70217 18.7542 10.2957 18.3166 10.7332C17.879 11.1708 17.2855 11.4167 16.6667 11.4167H14.9167C14.2978 11.4167 13.7043 11.1708 13.2668 10.7332C12.8292 10.2957 12.5833 9.70217 12.5833 9.08333V7.33333ZM5 14.9167C5 14.2978 5.24583 13.7043 5.68342 13.2668C6.121 12.8292 6.71449 12.5833 7.33333 12.5833H9.08333C9.70217 12.5833 10.2957 12.8292 10.7332 13.2668C11.1708 13.7043 11.4167 14.2978 11.4167 14.9167V16.6667C11.4167 17.2855 11.1708 17.879 10.7332 18.3166C10.2957 18.7542 9.70217 19 9.08333 19H7.33333C6.71449 19 6.121 18.7542 5.68342 18.3166C5.24583 17.879 5 17.2855 5 16.6667V14.9167ZM12.5833 14.9167C12.5833 14.2978 12.8292 13.7043 13.2668 13.2668C13.7043 12.8292 14.2978 12.5833 14.9167 12.5833H16.6667C17.2855 12.5833 17.879 12.8292 18.3166 13.2668C18.7542 13.7043 19 14.2978 19 14.9167V16.6667C19 17.2855 18.7542 17.879 18.3166 18.3166C17.879 18.7542 17.2855 19 16.6667 19H14.9167C14.2978 19 13.7043 18.7542 13.2668 18.3166C12.8292 17.879 12.5833 17.2855 12.5833 16.6667V14.9167Z" fill="currentColor"/>
</svg>
