<svg width="24" height="24" viewBox="0 0 24 24" fill="none" xmlns="http://www.w3.org/2000/svg">
<path d="M13.738 16.9C14.4106 16.9 14.766 17.6168 14.3173 18.0676C14.0258 18.3612 13.6687 18.5961 13.2694 18.7567C12.87 18.9174 12.4375 19.0003 12 19C11.5626 19.0003 11.13 18.9174 10.7307 18.7567C10.3313 18.5961 9.97421 18.3612 9.68274 18.0676C9.25349 17.6364 9.55987 16.9623 10.1757 16.9049L10.2613 16.9007L13.738 16.9Z" fill="currentColor"/>
<path d="M12 5C13.056 5 13.9487 5.6321 14.2357 6.4987L14.2714 6.6184L14.2776 6.6485C15.1349 7.08383 15.8654 7.69577 16.4093 8.4342C16.9532 9.17263 17.295 10.0165 17.4068 10.8968L17.4285 11.0977L17.4433 11.3V13.3517L17.4596 13.4469C17.5661 13.9627 17.8832 14.4239 18.3485 14.7398L18.4783 14.8217L18.6043 14.891C19.273 15.2319 19.0398 16.1272 18.3111 16.1958L18.2209 16.2H5.77909C4.9797 16.2 4.70054 15.2452 5.39573 14.891C5.69202 14.7401 5.94803 14.5326 6.14577 14.2831C6.34351 14.0336 6.4782 13.7482 6.54038 13.4469L6.55671 13.3468L6.55749 11.2678C6.6049 10.3535 6.90054 9.46363 7.41853 8.67603C7.93652 7.88843 8.66106 7.22712 9.52875 6.75L9.7216 6.6478L9.72938 6.6177C9.83938 6.19912 10.0894 5.82099 10.4456 5.53434C10.8019 5.24768 11.2473 5.06631 11.7216 5.0147L11.8632 5.0028L12 5Z" fill="currentColor"/>
</svg>
