<svg width="24" height="24" viewBox="0 0 24 24" fill="none" xmlns="http://www.w3.org/2000/svg">
<path d="M18.0289 17.8761C17.2715 17.8747 16.5455 17.5717 16.0098 17.0333C15.4742 16.4949 15.1726 15.7651 15.1711 15.0037C15.1717 14.5099 15.299 14.0245 15.5407 13.5946C15.7823 13.1647 16.1302 12.8047 16.5507 12.5494L16.5634 12.5424L17.5068 15.1921C17.5857 15.4114 17.7905 15.5653 18.0312 15.5653C18.096 15.5649 18.1602 15.553 18.2209 15.5303L18.2169 15.5315C18.2859 15.5065 18.3493 15.468 18.4036 15.4183C18.4578 15.3686 18.5017 15.3086 18.5329 15.2418C18.564 15.1751 18.5818 15.1027 18.5851 15.029C18.5884 14.9553 18.5772 14.8817 18.5522 14.8124L18.5533 14.8165L17.61 12.1651C17.7348 12.1447 17.8792 12.1318 18.026 12.1307H18.0277C18.7851 12.132 19.5112 12.4351 20.0468 12.9735C20.5824 13.5118 20.884 14.2416 20.8855 15.0031C20.8843 15.7644 20.5831 16.4947 20.0478 17.0332C19.5125 17.5717 18.7867 17.875 18.0295 17.8767L18.0289 17.8761ZM11.7169 13.9451L9.90451 10.2923L14.6536 10.0456L11.7169 13.9451ZM9.90451 14.4426C9.75654 13.4017 9.20645 12.4615 8.3735 11.8256L8.36364 11.8186L8.9171 10.812L10.7185 14.4426H9.90451ZM6.91965 14.4426L7.8183 12.8095C8.30829 13.2247 8.64556 13.7932 8.77612 14.4239L8.77902 14.4426H6.91965ZM5.97517 17.8761C5.21776 17.8747 4.49175 17.5717 3.95612 17.0333C3.4205 16.4949 3.1189 15.7651 3.11736 15.0037C3.11874 14.2422 3.4202 13.5124 3.95571 12.9739C4.49123 12.4354 5.21718 12.1322 5.97459 12.1307C6.28555 12.1307 6.58432 12.1808 6.86396 12.2735L6.84365 12.2677L5.48785 14.7354C5.4404 14.8209 5.41627 14.9175 5.4179 15.0154C5.41953 15.1133 5.44686 15.2091 5.49713 15.293L5.49597 15.2906C5.59459 15.4568 5.77212 15.5659 5.97517 15.5665H8.77612C8.50345 16.8928 7.35128 17.8755 5.97111 17.8761H5.97517ZM18.0306 11.0085H18.026C17.744 11.0085 17.4691 11.0383 17.2033 11.0942L17.2295 11.0896L15.4113 5.9816C15.3809 5.89771 15.3312 5.82228 15.2661 5.76153C15.201 5.70078 15.1225 5.65647 15.0371 5.63224L15.033 5.63108L12.8052 5.01984C12.6632 4.98079 12.5116 4.99985 12.3836 5.07286C12.2555 5.14587 12.1614 5.26688 12.1218 5.40945L12.1207 5.41353C12.0821 5.55597 12.1011 5.70795 12.1735 5.8364C12.2458 5.96486 12.3657 6.05938 12.507 6.09941L12.5111 6.10058L14.4604 6.63482L15.2668 8.8937L9.36439 9.19989L9.14451 8.7578H9.78848C9.86161 8.75803 9.93406 8.74372 10.0017 8.7157C10.0693 8.68767 10.1307 8.64648 10.1824 8.5945C10.2341 8.54251 10.2751 8.48076 10.303 8.4128C10.3308 8.34483 10.3451 8.27199 10.3448 8.19848C10.3448 8.04998 10.2862 7.90698 10.1817 7.80198C10.0773 7.69698 9.93561 7.63799 9.7879 7.63799H6.58549C6.43777 7.63799 6.29611 7.69698 6.19167 7.80198C6.08722 7.90698 6.02854 8.0494 6.02854 8.1979C6.02831 8.27141 6.04255 8.34483 6.07043 8.4128C6.0983 8.48076 6.13928 8.54251 6.19099 8.5945C6.24269 8.64648 6.30412 8.68767 6.37172 8.7157C6.43933 8.74372 6.51178 8.75803 6.5849 8.7578H7.89488L8.31258 9.59766L7.38841 11.2774C6.93772 11.101 6.45822 11.0108 5.97459 11.0114C4.9214 11.0123 3.91099 11.4332 3.166 12.1816C2.42101 12.93 2.00169 13.9449 2 15.0037C2.00107 16.0627 2.41995 17.0787 3.16474 17.8277C3.90952 18.5766 4.91941 18.998 5.97285 18.9994C6.92539 18.9977 7.84568 18.6523 8.56627 18.026C9.28687 17.3997 9.7599 16.5342 9.89929 15.5869L9.90161 15.5653H11.6165C11.7022 15.5654 11.7866 15.5455 11.8634 15.5074C11.9402 15.4693 12.0072 15.4138 12.0592 15.3454L12.0603 15.3443L15.7924 10.3874L16.1788 11.4733C14.9071 12.1563 14.056 13.4808 14.0543 15.0048V15.0054C14.0554 16.0644 14.4743 17.0797 15.2191 17.8286C15.9639 18.5775 16.9738 18.9988 18.0272 19C19.0804 18.9988 20.0902 18.5776 20.835 17.8288C21.5798 17.0801 21.9988 16.0649 22 15.006C21.9986 13.9472 21.5796 12.9322 20.8348 12.1836C20.09 11.4349 19.0803 11.0138 18.0272 11.0126L18.0306 11.0085Z" fill="currentColor"/>
</svg>
