<svg width="24" height="24" viewBox="0 0 24 24" fill="none" xmlns="http://www.w3.org/2000/svg">
<path fill-rule="evenodd" clip-rule="evenodd" d="M9.64125 5.067C9.69843 5.09992 9.74853 5.14373 9.78867 5.19594C9.82882 5.24814 9.85822 5.30772 9.87521 5.37125C9.89219 5.43478 9.89642 5.50102 9.88765 5.56618C9.87889 5.63134 9.85729 5.69414 9.82411 5.75098C9.68925 5.98313 9.59311 6.23552 9.53944 6.4983C9.57829 6.53697 9.61848 6.5743 9.66001 6.6103C9.94227 6.26332 10.2989 5.98356 10.7039 5.79151C11.1088 5.59946 11.5517 5.49997 12.0003 5.50032C12.9467 5.50032 13.7907 5.93431 14.3426 6.6123C14.3828 6.5763 14.423 6.53897 14.4618 6.50097C14.4083 6.23721 14.3119 5.9839 14.1765 5.75098C14.1434 5.69417 14.1219 5.63142 14.1132 5.56633C14.1045 5.50125 14.1088 5.43509 14.1257 5.37163C14.1427 5.30818 14.1721 5.24868 14.2122 5.19653C14.2523 5.14437 14.3023 5.10059 14.3594 5.06767C14.4164 5.03475 14.4795 5.01335 14.5449 5.00468C14.6103 4.99601 14.6768 5.00025 14.7405 5.01715C14.8043 5.03405 14.864 5.06328 14.9164 5.10317C14.9688 5.14307 15.0128 5.19285 15.0459 5.24966C15.2893 5.66829 15.4424 6.13283 15.4954 6.61363C15.503 6.68343 15.4958 6.75405 15.4742 6.8209C15.4527 6.88775 15.4172 6.94933 15.3701 7.00162C15.2087 7.18162 15.0318 7.34828 14.843 7.50094C15.0022 7.94954 15.0518 8.42944 14.9876 8.90091C14.9166 9.4289 14.4833 9.76422 14.0385 9.83622C13.9166 9.85622 13.7947 9.87422 13.6721 9.89022C13.774 10.0415 13.855 10.2075 13.9126 10.3849C14.7818 10.279 15.6405 10.0999 16.4793 9.84955C16.436 9.26033 16.3588 8.67405 16.2482 8.0936C16.2233 7.96329 16.2515 7.82849 16.3265 7.71884C16.4015 7.6092 16.5172 7.5337 16.6481 7.50894C16.779 7.48419 16.9144 7.51221 17.0246 7.58685C17.1348 7.66149 17.2106 7.77663 17.2355 7.90693C17.3762 8.65025 17.4686 9.4109 17.5061 10.1855C17.5116 10.2951 17.4807 10.4034 17.4182 10.4937C17.3558 10.584 17.2652 10.6515 17.1605 10.6855C16.1377 11.0182 15.0714 11.2549 13.9722 11.3848C13.9226 11.6382 13.8249 11.8748 13.6889 12.0848C15.0727 12.2242 16.407 12.5328 17.6695 12.9901C17.7713 13.027 17.8583 13.0956 17.9177 13.1857C17.9771 13.2758 18.0056 13.3826 17.9991 13.4901C17.9155 14.9074 17.6478 16.3079 17.2027 17.6567C17.182 17.7191 17.1492 17.7768 17.1061 17.8265C17.063 17.8763 17.0105 17.9171 16.9516 17.9467C16.8927 17.9762 16.8285 17.994 16.7627 17.9988C16.6968 18.0037 16.6307 17.9956 16.568 17.975C16.5054 17.9545 16.4474 17.9218 16.3974 17.8789C16.3474 17.836 16.3064 17.7838 16.2767 17.7251C16.247 17.6665 16.2292 17.6026 16.2243 17.5371C16.2194 17.4716 16.2275 17.4057 16.2482 17.3434C16.6269 16.1964 16.869 15.0092 16.9696 13.8061C16.6347 13.6935 16.2938 13.5928 15.9488 13.5028C15.9944 13.6588 16.0185 13.8255 16.0185 14.0001C16.0185 16.6374 14.3299 19 11.9996 19C9.67006 19 7.98081 16.6374 7.98081 14.0001C7.98081 13.8255 8.00559 13.6595 8.05047 13.5028C7.70619 13.5928 7.36593 13.6935 7.03102 13.8061C7.13417 15.0314 7.37932 16.2167 7.7524 17.344C7.77394 17.4067 7.78277 17.4729 7.77839 17.5389C7.774 17.605 7.75648 17.6695 7.72685 17.7288C7.69722 17.788 7.65607 17.8408 7.60577 17.8841C7.55548 17.9274 7.49705 17.9603 7.43387 17.981C7.37069 18.0016 7.30402 18.0096 7.23773 18.0044C7.17144 17.9992 7.10684 17.981 7.04768 17.9508C6.98853 17.9205 6.93599 17.8789 6.89312 17.8283C6.85024 17.7777 6.81789 17.7192 6.79793 17.656C6.35261 16.3073 6.08469 14.9067 6.00086 13.4895C5.99452 13.3819 6.02324 13.2753 6.08274 13.1853C6.14224 13.0953 6.22934 13.0269 6.33108 12.9901C7.40748 12.6003 8.52182 12.3232 9.65599 12.1635H9.66269C9.8777 12.1328 10.094 12.1068 10.3117 12.0848C10.173 11.8717 10.0766 11.6341 10.0277 11.3848C8.94432 11.2571 7.87633 11.0226 6.83946 10.6849C6.73473 10.6508 6.64417 10.5834 6.58171 10.493C6.51926 10.4027 6.48838 10.2944 6.49384 10.1849C6.53202 9.41156 6.62378 8.65025 6.76511 7.90693C6.78998 7.77663 6.86584 7.66149 6.976 7.58685C7.08617 7.51221 7.22161 7.48419 7.35253 7.50894C7.48345 7.5337 7.59913 7.6092 7.67413 7.71884C7.74912 7.82849 7.77727 7.96329 7.7524 8.0936C7.64256 8.66825 7.56486 9.25357 7.52132 9.84955C8.34987 10.0969 9.20722 10.2775 10.088 10.3849C10.1449 10.2075 10.2267 10.0415 10.3285 9.89022C10.2061 9.87424 10.0839 9.85646 9.96209 9.83689C9.51734 9.76356 9.08398 9.4289 9.01298 8.90091C8.94978 8.42872 8.99958 7.94834 9.15832 7.49894C8.96921 7.34639 8.7927 7.17897 8.63052 6.99829C8.58335 6.94592 8.54781 6.88423 8.52623 6.81726C8.50465 6.75029 8.4975 6.67954 8.50526 6.60963C8.55855 6.13025 8.71137 5.66714 8.95403 5.24966C8.9871 5.19275 9.03113 5.1429 9.08358 5.10294C9.13603 5.06298 9.19589 5.03372 9.25972 5.01681C9.32355 4.99991 9.39011 4.9957 9.45558 5.00442C9.52104 5.01315 9.58414 5.03398 9.64125 5.067Z" fill="currentColor"/>
</svg>
