<svg width="24" height="24" viewBox="0 0 24 24" fill="none" xmlns="http://www.w3.org/2000/svg">
<path d="M12.5385 12.5385C12.5385 12.6813 12.4817 12.8182 12.3808 12.9192C12.2798 13.0202 12.1428 13.0769 12 13.0769C11.8572 13.0769 11.7202 13.0202 11.6193 12.9192C11.5183 12.8182 11.4615 12.6813 11.4615 12.5385C11.4615 12.3957 11.5183 12.2587 11.6193 12.1577C11.7202 12.0567 11.8572 12 12 12C12.1428 12 12.2798 12.0567 12.3808 12.1577C12.4817 12.2587 12.5385 12.3957 12.5385 12.5385ZM8.76924 14.6923C8.91204 14.6923 9.049 14.6356 9.14999 14.5346C9.25097 14.4336 9.3077 14.2967 9.3077 14.1538C9.3077 14.011 9.25097 13.8741 9.14999 13.7731C9.049 13.6721 8.91204 13.6154 8.76924 13.6154C8.62643 13.6154 8.48947 13.6721 8.38849 13.7731C8.2875 13.8741 8.23077 14.011 8.23077 14.1538C8.23077 14.2967 8.2875 14.4336 8.38849 14.5346C8.48947 14.6356 8.62643 14.6923 8.76924 14.6923ZM9.3077 15.7692C9.3077 15.912 9.25097 16.049 9.14999 16.15C9.049 16.251 8.91204 16.3077 8.76924 16.3077C8.62643 16.3077 8.48947 16.251 8.38849 16.15C8.2875 16.049 8.23077 15.912 8.23077 15.7692C8.23077 15.6264 8.2875 15.4895 8.38849 15.3885C8.48947 15.2875 8.62643 15.2308 8.76924 15.2308C8.91204 15.2308 9.049 15.2875 9.14999 15.3885C9.25097 15.4895 9.3077 15.6264 9.3077 15.7692ZM10.3846 14.6923C10.5274 14.6923 10.6644 14.6356 10.7654 14.5346C10.8664 14.4336 10.9231 14.2967 10.9231 14.1538C10.9231 14.011 10.8664 13.8741 10.7654 13.7731C10.6644 13.6721 10.5274 13.6154 10.3846 13.6154C10.2418 13.6154 10.1049 13.6721 10.0039 13.7731C9.90289 13.8741 9.84616 14.011 9.84616 14.1538C9.84616 14.2967 9.90289 14.4336 10.0039 14.5346C10.1049 14.6356 10.2418 14.6923 10.3846 14.6923ZM10.9231 15.7692C10.9231 15.912 10.8664 16.049 10.7654 16.15C10.6644 16.251 10.5274 16.3077 10.3846 16.3077C10.2418 16.3077 10.1049 16.251 10.0039 16.15C9.90289 16.049 9.84616 15.912 9.84616 15.7692C9.84616 15.6264 9.90289 15.4895 10.0039 15.3885C10.1049 15.2875 10.2418 15.2308 10.3846 15.2308C10.5274 15.2308 10.6644 15.2875 10.7654 15.3885C10.8664 15.4895 10.9231 15.6264 10.9231 15.7692ZM12 14.6923C12.1428 14.6923 12.2798 14.6356 12.3808 14.5346C12.4817 14.4336 12.5385 14.2967 12.5385 14.1538C12.5385 14.011 12.4817 13.8741 12.3808 13.7731C12.2798 13.6721 12.1428 13.6154 12 13.6154C11.8572 13.6154 11.7202 13.6721 11.6193 13.7731C11.5183 13.8741 11.4615 14.011 11.4615 14.1538C11.4615 14.2967 11.5183 14.4336 11.6193 14.5346C11.7202 14.6356 11.8572 14.6923 12 14.6923ZM12.5385 15.7692C12.5385 15.912 12.4817 16.049 12.3808 16.15C12.2798 16.251 12.1428 16.3077 12 16.3077C11.8572 16.3077 11.7202 16.251 11.6193 16.15C11.5183 16.049 11.4615 15.912 11.4615 15.7692C11.4615 15.6264 11.5183 15.4895 11.6193 15.3885C11.7202 15.2875 11.8572 15.2308 12 15.2308C12.1428 15.2308 12.2798 15.2875 12.3808 15.3885C12.4817 15.4895 12.5385 15.6264 12.5385 15.7692ZM13.6154 14.6923C13.7582 14.6923 13.8952 14.6356 13.9961 14.5346C14.0971 14.4336 14.1539 14.2967 14.1539 14.1538C14.1539 14.011 14.0971 13.8741 13.9961 13.7731C13.8952 13.6721 13.7582 13.6154 13.6154 13.6154C13.4726 13.6154 13.3356 13.6721 13.2346 13.7731C13.1337 13.8741 13.0769 14.011 13.0769 14.1538C13.0769 14.2967 13.1337 14.4336 13.2346 14.5346C13.3356 14.6356 13.4726 14.6923 13.6154 14.6923ZM14.1539 15.7692C14.1539 15.912 14.0971 16.049 13.9961 16.15C13.8952 16.251 13.7582 16.3077 13.6154 16.3077C13.4726 16.3077 13.3356 16.251 13.2346 16.15C13.1337 16.049 13.0769 15.912 13.0769 15.7692C13.0769 15.6264 13.1337 15.4895 13.2346 15.3885C13.3356 15.2875 13.4726 15.2308 13.6154 15.2308C13.7582 15.2308 13.8952 15.2875 13.9961 15.3885C14.0971 15.4895 14.1539 15.6264 14.1539 15.7692ZM15.2308 14.6923C15.3736 14.6923 15.5105 14.6356 15.6115 14.5346C15.7125 14.4336 15.7692 14.2967 15.7692 14.1538C15.7692 14.011 15.7125 13.8741 15.6115 13.7731C15.5105 13.6721 15.3736 13.6154 15.2308 13.6154C15.088 13.6154 14.951 13.6721 14.85 13.7731C14.749 13.8741 14.6923 14.011 14.6923 14.1538C14.6923 14.2967 14.749 14.4336 14.85 14.5346C14.951 14.6356 15.088 14.6923 15.2308 14.6923ZM14.1539 12.5385C14.1539 12.6813 14.0971 12.8182 13.9961 12.9192C13.8952 13.0202 13.7582 13.0769 13.6154 13.0769C13.4726 13.0769 13.3356 13.0202 13.2346 12.9192C13.1337 12.8182 13.0769 12.6813 13.0769 12.5385C13.0769 12.3957 13.1337 12.2587 13.2346 12.1577C13.3356 12.0567 13.4726 12 13.6154 12C13.7582 12 13.8952 12.0567 13.9961 12.1577C14.0971 12.2587 14.1539 12.3957 14.1539 12.5385ZM15.2308 13.0769C15.3736 13.0769 15.5105 13.0202 15.6115 12.9192C15.7125 12.8182 15.7692 12.6813 15.7692 12.5385C15.7692 12.3957 15.7125 12.2587 15.6115 12.1577C15.5105 12.0567 15.3736 12 15.2308 12C15.088 12 14.951 12.0567 14.85 12.1577C14.749 12.2587 14.6923 12.3957 14.6923 12.5385C14.6923 12.6813 14.749 12.8182 14.85 12.9192C14.951 13.0202 15.088 13.0769 15.2308 13.0769Z" fill="currentColor"/>
<path fill-rule="evenodd" clip-rule="evenodd" d="M8.23077 5C8.37358 5 8.51054 5.05673 8.61152 5.15771C8.7125 5.25869 8.76923 5.39565 8.76923 5.53846V6.61538H15.2308V5.53846C15.2308 5.39565 15.2875 5.25869 15.3885 5.15771C15.4895 5.05673 15.6264 5 15.7692 5C15.912 5 16.049 5.05673 16.15 5.15771C16.251 5.25869 16.3077 5.39565 16.3077 5.53846V6.61538H16.8462C17.4174 6.61538 17.9652 6.84231 18.3692 7.24623C18.7731 7.65016 19 8.198 19 8.76923V16.8462C19 17.4174 18.7731 17.9652 18.3692 18.3692C17.9652 18.7731 17.4174 19 16.8462 19H7.15385C6.58261 19 6.03477 18.7731 5.63085 18.3692C5.22692 17.9652 5 17.4174 5 16.8462V8.76923C5 8.198 5.22692 7.65016 5.63085 7.24623C6.03477 6.84231 6.58261 6.61538 7.15385 6.61538H7.69231V5.53846C7.69231 5.39565 7.74904 5.25869 7.85002 5.15771C7.951 5.05673 8.08796 5 8.23077 5ZM17.9231 11.4615C17.9231 11.1759 17.8096 10.902 17.6077 10.7C17.4057 10.4981 17.1318 10.3846 16.8462 10.3846H7.15385C6.86823 10.3846 6.59431 10.4981 6.39235 10.7C6.19038 10.902 6.07692 11.1759 6.07692 11.4615V16.8462C6.07692 17.1318 6.19038 17.4057 6.39235 17.6077C6.59431 17.8096 6.86823 17.9231 7.15385 17.9231H16.8462C17.1318 17.9231 17.4057 17.8096 17.6077 17.6077C17.8096 17.4057 17.9231 17.1318 17.9231 16.8462V11.4615Z" fill="currentColor"/>
</svg>
