<svg width="24" height="24" viewBox="0 0 24 24" fill="none" xmlns="http://www.w3.org/2000/svg">
<path d="M6.55556 8.1111H7.33333C7.74589 8.1111 8.14155 7.94722 8.43328 7.65549C8.725 7.36377 8.88889 6.96811 8.88889 6.55555C8.88889 6.34927 8.97083 6.15144 9.11669 6.00558C9.26256 5.85972 9.46039 5.77777 9.66667 5.77777H14.3333C14.5396 5.77777 14.7374 5.85972 14.8833 6.00558C15.0292 6.15144 15.1111 6.34927 15.1111 6.55555C15.1111 6.96811 15.275 7.36377 15.5667 7.65549C15.8584 7.94722 16.2541 8.1111 16.6667 8.1111H17.4444C17.857 8.1111 18.2527 8.27499 18.5444 8.56672C18.8361 8.85844 19 9.2541 19 9.66666V16.6667C19 17.0792 18.8361 17.4749 18.5444 17.7666C18.2527 18.0583 17.857 18.2222 17.4444 18.2222H6.55556C6.143 18.2222 5.74733 18.0583 5.45561 17.7666C5.16389 17.4749 5 17.0792 5 16.6667V9.66666C5 9.2541 5.16389 8.85844 5.45561 8.56672C5.74733 8.27499 6.143 8.1111 6.55556 8.1111Z" stroke="currentColor" stroke-linecap="round" stroke-linejoin="round"/>
<path d="M9.66667 12.7778C9.66667 13.3966 9.9125 13.9901 10.3501 14.4277C10.7877 14.8653 11.3812 15.1111 12 15.1111C12.6188 15.1111 13.2123 14.8653 13.6499 14.4277C14.0875 13.9901 14.3333 13.3966 14.3333 12.7778C14.3333 12.1589 14.0875 11.5654 13.6499 11.1279C13.2123 10.6903 12.6188 10.4444 12 10.4444C11.3812 10.4444 10.7877 10.6903 10.3501 11.1279C9.9125 11.5654 9.66667 12.1589 9.66667 12.7778Z" stroke="currentColor" stroke-linecap="round" stroke-linejoin="round"/>
</svg>
