<svg width="24" height="24" viewBox="0 0 24 24" fill="none" xmlns="http://www.w3.org/2000/svg">
<path d="M5.57143 5C4.88944 5 4.23539 5.26818 3.75315 5.74555C3.27092 6.22291 3 6.87036 3 7.54545V8.18182H21V7.54545C21 6.87036 20.7291 6.22291 20.2468 5.74555C19.7646 5.26818 19.1106 5 18.4286 5H5.57143Z" fill="currentColor"/>
<path fill-rule="evenodd" clip-rule="evenodd" d="M21 10.0909H3V16.4546C3 17.1297 3.27092 17.7771 3.75315 18.2545C4.23539 18.7319 4.88944 19 5.57143 19H18.4286C19.1106 19 19.7646 18.7319 20.2468 18.2545C20.7291 17.7771 21 17.1297 21 16.4546V10.0909ZM5.57143 13.2728C5.57143 13.104 5.63916 12.9421 5.75972 12.8228C5.88028 12.7034 6.04379 12.6364 6.21429 12.6364H11.3571C11.5276 12.6364 11.6912 12.7034 11.8117 12.8228C11.9323 12.9421 12 13.104 12 13.2728C12 13.4415 11.9323 13.6034 11.8117 13.7227C11.6912 13.8421 11.5276 13.9091 11.3571 13.9091H6.21429C6.04379 13.9091 5.88028 13.8421 5.75972 13.7227C5.63916 13.6034 5.57143 13.4415 5.57143 13.2728ZM6.21429 15.1819C6.04379 15.1819 5.88028 15.2489 5.75972 15.3682C5.63916 15.4876 5.57143 15.6494 5.57143 15.8182C5.57143 15.987 5.63916 16.1489 5.75972 16.2682C5.88028 16.3875 6.04379 16.4546 6.21429 16.4546H8.78571C8.95621 16.4546 9.11972 16.3875 9.24028 16.2682C9.36084 16.1489 9.42857 15.987 9.42857 15.8182C9.42857 15.6494 9.36084 15.4876 9.24028 15.3682C9.11972 15.2489 8.95621 15.1819 8.78571 15.1819H6.21429Z" fill="currentColor"/>
</svg>
