<svg width="24" height="24" viewBox="0 0 24 24" fill="none" xmlns="http://www.w3.org/2000/svg">
<path d="M12 4.99915C15.8661 4.99915 19 8.13304 19 11.9991C19 15.8652 15.8661 18.9991 12 18.9991C10.8676 19.0006 9.7518 18.7263 8.7492 18.1997L5.74621 18.9816C5.64587 19.0078 5.54044 19.0072 5.44037 18.9801C5.3403 18.9529 5.24907 18.9001 5.17572 18.8268C5.10236 18.7535 5.04943 18.6623 5.02217 18.5623C4.99491 18.4622 4.99427 18.3568 5.02031 18.2564L5.80151 15.2541C5.27357 14.2505 4.99845 13.1332 5.00001 11.9991C5.00001 8.13304 8.13391 4.99915 12 4.99915ZM12.8764 12.6991H9.725L9.6536 12.704C9.52795 12.7213 9.4128 12.7835 9.32944 12.8791C9.24609 12.9747 9.20017 13.0973 9.20017 13.2241C9.20017 13.351 9.24609 13.4735 9.32944 13.5691C9.4128 13.6648 9.52795 13.727 9.6536 13.7442L9.725 13.7491H12.8764L12.9471 13.7442C13.0728 13.727 13.1879 13.6648 13.2713 13.5691C13.3546 13.4735 13.4005 13.351 13.4005 13.2241C13.4005 13.0973 13.3546 12.9747 13.2713 12.8791C13.1879 12.7835 13.0728 12.7213 12.9471 12.704L12.8764 12.6991ZM14.275 10.2491H9.725L9.6536 10.254C9.52795 10.2713 9.4128 10.3335 9.32944 10.4291C9.24609 10.5247 9.20017 10.6473 9.20017 10.7741C9.20017 10.901 9.24609 11.0235 9.32944 11.1191C9.4128 11.2148 9.52795 11.277 9.6536 11.2942L9.725 11.2991H14.275L14.3464 11.2942C14.4721 11.277 14.5872 11.2148 14.6706 11.1191C14.7539 11.0235 14.7998 10.901 14.7998 10.7741C14.7998 10.6473 14.7539 10.5247 14.6706 10.4291C14.5872 10.3335 14.4721 10.2713 14.3464 10.254L14.275 10.2491Z" fill="currentColor"/>
</svg>
