<svg width="24" height="24" viewBox="0 0 24 24" fill="none" xmlns="http://www.w3.org/2000/svg">
<path fill-rule="evenodd" clip-rule="evenodd" d="M5 12C5 8.13385 8.13385 5 12 5C15.8662 5 19 8.13385 19 12C19 15.8662 15.8662 19 12 19C8.13385 19 5 15.8662 5 12ZM14.5918 10.6976C14.6349 10.6402 14.666 10.5748 14.6835 10.5052C14.7009 10.4356 14.7042 10.3632 14.6933 10.2923C14.6823 10.2213 14.6573 10.1533 14.6197 10.0922C14.5821 10.0311 14.5326 9.9781 14.4742 9.93636C14.4159 9.89463 14.3497 9.86499 14.2797 9.84919C14.2097 9.83339 14.1372 9.83173 14.0666 9.84433C13.9959 9.85693 13.9285 9.88352 13.8683 9.92255C13.8081 9.96158 13.7563 10.0123 13.7159 10.0716L11.3926 13.3239L10.2267 12.1579C10.1246 12.0628 9.98959 12.0111 9.85009 12.0135C9.71059 12.016 9.57749 12.0725 9.47884 12.1711C9.38018 12.2698 9.32367 12.4029 9.32121 12.5424C9.31875 12.6819 9.37053 12.8169 9.46564 12.919L11.081 14.5344C11.1363 14.5896 11.2029 14.6321 11.2763 14.659C11.3497 14.6859 11.428 14.6965 11.5059 14.6901C11.5838 14.6837 11.6593 14.6604 11.7273 14.6218C11.7952 14.5833 11.854 14.5304 11.8995 14.4669L14.5918 10.6976Z" fill="currentColor"/>
</svg>
