<svg width="24" height="24" viewBox="0 0 24 24" fill="none" xmlns="http://www.w3.org/2000/svg">
<path fill-rule="evenodd" clip-rule="evenodd" d="M5.71991 5.72923C5.85495 5.59436 6.03801 5.5186 6.22887 5.5186C6.41973 5.5186 6.60279 5.59436 6.73783 5.72923L11.9907 10.9821L17.2435 5.72923C17.3095 5.65847 17.389 5.60171 17.4773 5.56235C17.5657 5.52298 17.661 5.50182 17.7577 5.50011C17.8545 5.49841 17.9505 5.51619 18.0402 5.55242C18.1299 5.58864 18.2113 5.64256 18.2797 5.71095C18.3481 5.77934 18.402 5.86081 18.4383 5.95049C18.4745 6.04017 18.4923 6.13623 18.4906 6.23293C18.4889 6.32964 18.4677 6.42501 18.4283 6.51335C18.389 6.6017 18.3322 6.68122 18.2614 6.74715L13.0086 12L18.2614 17.2528C18.3322 17.3188 18.389 17.3983 18.4283 17.4866C18.4677 17.575 18.4889 17.6704 18.4906 17.7671C18.4923 17.8638 18.4745 17.9598 18.4383 18.0495C18.402 18.1392 18.3481 18.2207 18.2797 18.2891C18.2113 18.3574 18.1299 18.4114 18.0402 18.4476C17.9505 18.4838 17.8545 18.5016 17.7577 18.4999C17.661 18.4982 17.5657 18.477 17.4773 18.4377C17.389 18.3983 17.3095 18.3415 17.2435 18.2708L11.9907 13.0179L6.73783 18.2708C6.6013 18.398 6.42072 18.4672 6.23413 18.464C6.04754 18.4607 5.86952 18.3851 5.73756 18.2531C5.6056 18.1212 5.53001 17.9431 5.52672 17.7565C5.52343 17.57 5.59269 17.3894 5.71991 17.2528L10.9728 12L5.71991 6.74715C5.58503 6.61211 5.50928 6.42905 5.50928 6.23819C5.50928 6.04733 5.58503 5.86427 5.71991 5.72923Z" fill="currentColor"/>
</svg>
