<svg width="24" height="24" viewBox="0 0 24 24" fill="none" xmlns="http://www.w3.org/2000/svg">
<path d="M18 12.6364H19.3333C19.5101 12.6364 19.6797 12.5693 19.8047 12.45C19.9298 12.3306 20 12.1688 20 12C20 11.8312 19.9298 11.6694 19.8047 11.55C19.6797 11.4307 19.5101 11.3636 19.3333 11.3636H18C17.8232 11.3636 17.6536 11.4307 17.5286 11.55C17.4036 11.6694 17.3333 11.8312 17.3333 12C17.3333 12.1688 17.4036 12.3306 17.5286 12.45C17.6536 12.5693 17.8232 12.6364 18 12.6364ZM12 6.90909C12 6.74032 12.0702 6.57846 12.1953 6.45911C12.3203 6.33977 12.4899 6.27273 12.6667 6.27273H19.3333C19.5101 6.27273 19.6797 6.33977 19.8047 6.45911C19.9298 6.57846 20 6.74032 20 6.90909C20 7.07787 19.9298 7.23973 19.8047 7.35907C19.6797 7.47841 19.5101 7.54545 19.3333 7.54545H12.6667C12.4899 7.54545 12.3203 7.47841 12.1953 7.35907C12.0702 7.23973 12 7.07787 12 6.90909ZM12 17.0909C12 16.9221 12.0702 16.7603 12.1953 16.6409C12.3203 16.5216 12.4899 16.4545 12.6667 16.4545H19.3333C19.5101 16.4545 19.6797 16.5216 19.8047 16.6409C19.9298 16.7603 20 16.9221 20 17.0909C20 17.2597 19.9298 17.4215 19.8047 17.5409C19.6797 17.6602 19.5101 17.7273 19.3333 17.7273H12.6667C12.4899 17.7273 12.3203 17.6602 12.1953 17.5409C12.0702 17.4215 12 17.2597 12 17.0909ZM4.66667 7.54545H6C6.17681 7.54545 6.34638 7.47841 6.4714 7.35907C6.59643 7.23973 6.66667 7.07787 6.66667 6.90909C6.66667 6.74032 6.59643 6.57846 6.4714 6.45911C6.34638 6.33977 6.17681 6.27273 6 6.27273H4.66667C4.48986 6.27273 4.32029 6.33977 4.19526 6.45911C4.07024 6.57846 4 6.74032 4 6.90909C4 7.07787 4.07024 7.23973 4.19526 7.35907C4.32029 7.47841 4.48986 7.54545 4.66667 7.54545ZM6 17.7273H4.66667C4.48986 17.7273 4.32029 17.6602 4.19526 17.5409C4.07024 17.4215 4 17.2597 4 17.0909C4 16.9221 4.07024 16.7603 4.19526 16.6409C4.32029 16.5216 4.48986 16.4545 4.66667 16.4545H6C6.17681 16.4545 6.34638 16.5216 6.4714 16.6409C6.59643 16.7603 6.66667 16.9221 6.66667 17.0909C6.66667 17.2597 6.59643 17.4215 6.4714 17.5409C6.34638 17.6602 6.17681 17.7273 6 17.7273ZM4 12C4 11.8312 4.07024 11.6694 4.19526 11.55C4.32029 11.4307 4.48986 11.3636 4.66667 11.3636H11.3333C11.5101 11.3636 11.6797 11.4307 11.8047 11.55C11.9298 11.6694 12 11.8312 12 12C12 12.1688 11.9298 12.3306 11.8047 12.45C11.6797 12.5693 11.5101 12.6364 11.3333 12.6364H4.66667C4.48986 12.6364 4.32029 12.5693 4.19526 12.45C4.07024 12.3306 4 12.1688 4 12ZM9.33333 5C8.8029 5 8.29419 5.20114 7.91912 5.55916C7.54405 5.91718 7.33333 6.40277 7.33333 6.90909C7.33333 7.41541 7.54405 7.901 7.91912 8.25902C8.29419 8.61705 8.8029 8.81818 9.33333 8.81818C9.86377 8.81818 10.3725 8.61705 10.7475 8.25902C11.1226 7.901 11.3333 7.41541 11.3333 6.90909C11.3333 6.40277 11.1226 5.91718 10.7475 5.55916C10.3725 5.20114 9.86377 5 9.33333 5ZM12.6667 12C12.6667 11.4937 12.8774 11.0081 13.2525 10.6501C13.6275 10.292 14.1362 10.0909 14.6667 10.0909C15.1971 10.0909 15.7058 10.292 16.0809 10.6501C16.456 11.0081 16.6667 11.4937 16.6667 12C16.6667 12.5063 16.456 12.9919 16.0809 13.3499C15.7058 13.708 15.1971 13.9091 14.6667 13.9091C14.1362 13.9091 13.6275 13.708 13.2525 13.3499C12.8774 12.9919 12.6667 12.5063 12.6667 12ZM9.33333 15.1818C8.8029 15.1818 8.29419 15.383 7.91912 15.741C7.54405 16.099 7.33333 16.5846 7.33333 17.0909C7.33333 17.5972 7.54405 18.0828 7.91912 18.4408C8.29419 18.7989 8.8029 19 9.33333 19C9.86377 19 10.3725 18.7989 10.7475 18.4408C11.1226 18.0828 11.3333 17.5972 11.3333 17.0909C11.3333 16.5846 11.1226 16.099 10.7475 15.741C10.3725 15.383 9.86377 15.1818 9.33333 15.1818Z" fill="currentColor"/>
</svg>
