<svg width="24" height="24" viewBox="0 0 24 24" fill="none" xmlns="http://www.w3.org/2000/svg">
<path fill-rule="evenodd" clip-rule="evenodd" d="M10.0313 5.15171C10.104 5.22436 10.1535 5.31697 10.1734 5.41778C10.1933 5.51858 10.1829 5.62304 10.1433 5.71789C9.82728 6.47641 9.66514 7.29017 9.66633 8.11189C9.66633 9.76201 10.3218 11.3445 11.4886 12.5114C12.6555 13.6782 14.238 14.3337 15.8881 14.3337C16.7098 14.3349 17.5236 14.1727 18.2821 13.8567C18.3769 13.8172 18.4813 13.8067 18.582 13.8267C18.6827 13.8466 18.7752 13.8959 18.8479 13.9685C18.9205 14.041 18.97 14.1335 18.99 14.2342C19.01 14.335 18.9997 14.4393 18.9603 14.5341C18.4086 15.8568 17.4779 16.9866 16.2854 17.7813C15.0929 18.576 13.6918 19 12.2587 19C8.24984 19 5 15.7509 5 11.7413C5 8.72163 6.84372 6.13337 9.46585 5.03972C9.56061 5.00033 9.66493 4.98994 9.7656 5.00988C9.86626 5.02981 9.95875 5.07918 10.0313 5.15171Z" fill="currentColor"/>
</svg>
