<svg width="24" height="24" viewBox="0 0 24 24" fill="none" xmlns="http://www.w3.org/2000/svg">
<path fill-rule="evenodd" clip-rule="evenodd" d="M16.3075 6.07692C16.5931 6.07692 16.867 6.19038 17.069 6.39235C17.2709 6.59431 17.3844 6.86823 17.3844 7.15385V16.8462C17.3844 17.1318 17.2709 17.4057 17.069 17.6077C16.867 17.8096 16.5931 17.9231 16.3075 17.9231H11.9998C11.7141 17.9231 11.4402 17.8096 11.2383 17.6077C11.0363 17.4057 10.9228 17.1318 10.9228 16.8462V14.1538C10.9228 14.011 10.8661 13.8741 10.7651 13.7731C10.6641 13.6721 10.5272 13.6154 10.3844 13.6154C10.2416 13.6154 10.1046 13.6721 10.0036 13.7731C9.90265 13.8741 9.84592 14.011 9.84592 14.1538V16.8462C9.84592 17.4174 10.0728 17.9652 10.4768 18.3692C10.8807 18.7731 11.4285 19 11.9998 19H16.3075C16.8787 19 17.4265 18.7731 17.8305 18.3692C18.2344 17.9652 18.4613 17.4174 18.4613 16.8462V7.15385C18.4613 6.58261 18.2344 6.03477 17.8305 5.63085C17.4265 5.22692 16.8787 5 16.3075 5H11.9998C11.4285 5 10.8807 5.22692 10.4768 5.63085C10.0728 6.03477 9.84592 6.58261 9.84592 7.15385V9.84615C9.84592 9.98896 9.90265 10.1259 10.0036 10.2269C10.1046 10.3279 10.2416 10.3846 10.3844 10.3846C10.5272 10.3846 10.6641 10.3279 10.7651 10.2269C10.8661 10.1259 10.9228 9.98896 10.9228 9.84615V7.15385C10.9228 6.86823 11.0363 6.59431 11.2383 6.39235C11.4402 6.19038 11.7141 6.07692 11.9998 6.07692H16.3075ZM8.61104 9.46564C8.51008 9.36481 8.37322 9.30817 8.23053 9.30817C8.08784 9.30817 7.95098 9.36481 7.85002 9.46564L5.69617 11.6195C5.59534 11.7204 5.5387 11.8573 5.5387 12C5.5387 12.1427 5.59534 12.2796 5.69617 12.3805L7.85002 14.5344C7.95209 14.6295 8.0871 14.6813 8.2266 14.6788C8.3661 14.6763 8.49919 14.6198 8.59785 14.5212C8.6965 14.4225 8.75302 14.2894 8.75548 14.1499C8.75794 14.0104 8.70616 13.8754 8.61104 13.7733L7.37617 12.5385H15.2305C15.3733 12.5385 15.5103 12.4817 15.6113 12.3807C15.7123 12.2798 15.769 12.1428 15.769 12C15.769 11.8572 15.7123 11.7202 15.6113 11.6193C15.5103 11.5183 15.3733 11.4615 15.2305 11.4615H7.37617L8.61104 10.2267C8.71188 10.1257 8.76852 9.98885 8.76852 9.84615C8.76852 9.70346 8.71188 9.5666 8.61104 9.46564Z" fill="currentColor"/>
</svg>
