<svg width="24" height="24" viewBox="0 0 24 24" fill="none" xmlns="http://www.w3.org/2000/svg">
<path d="M10.3333 12C10.3333 12.442 10.5089 12.866 10.8215 13.1785C11.134 13.4911 11.558 13.6667 12 13.6667C12.442 13.6667 12.866 13.4911 13.1785 13.1785C13.4911 12.866 13.6667 12.442 13.6667 12C13.6667 11.558 13.4911 11.134 13.1785 10.8215C12.866 10.5089 12.442 10.3333 12 10.3333C11.558 10.3333 11.134 10.5089 10.8215 10.8215C10.5089 11.134 10.3333 11.558 10.3333 12Z" stroke="currentColor" stroke-width="1.5" stroke-linecap="round" stroke-linejoin="round"/>
<path d="M19.5 12C17.5 15.3333 15 17 12 17C9 17 6.5 15.3333 4.5 12C6.5 8.66667 9 7 12 7C15 7 17.5 8.66667 19.5 12Z" stroke="currentColor" stroke-width="1.5" stroke-linecap="round" stroke-linejoin="round"/>
</svg>
