<svg width="24" height="24" viewBox="0 0 24 24" fill="none" xmlns="http://www.w3.org/2000/svg">
<path d="M10.8994 10.901C10.6078 11.1928 10.4439 11.5885 10.444 12.0011C10.4441 12.4136 10.6081 12.8093 10.8998 13.1009C11.1916 13.3926 11.5873 13.5565 11.9999 13.5564C12.4125 13.5563 12.8081 13.3923 13.0998 13.1006M15.6408 15.6346C14.5497 16.3172 13.287 16.6752 12 16.6667C9.2 16.6667 6.86667 15.1111 5 12C5.98933 10.3511 7.10933 9.13933 8.36 8.36467M10.5844 7.47333C11.0504 7.37901 11.5246 7.33211 12 7.33333C14.8 7.33333 17.1333 8.88889 19 12C18.482 12.8633 17.9274 13.6077 17.3371 14.2322M5 5L19 19" stroke="currentColor" stroke-width="1.5" stroke-linecap="round" stroke-linejoin="round"/>
</svg>
