<svg width="24" height="24" viewBox="0 0 24 24" fill="none" xmlns="http://www.w3.org/2000/svg">
<path d="M11.6471 6.22677C11.7408 6.12659 11.8678 6.07033 12.0002 6.07033C12.1325 6.07033 12.2595 6.12659 12.3532 6.22677L18.1413 12.4247C18.1874 12.4758 18.2425 12.5165 18.3035 12.5445C18.3645 12.5725 18.43 12.5872 18.4963 12.5878C18.5627 12.5884 18.6284 12.5748 18.6898 12.5479C18.7512 12.521 18.807 12.4812 18.8539 12.431C18.9007 12.3807 18.9378 12.321 18.9629 12.2553C18.988 12.1895 19.0006 12.1191 19 12.048C18.9994 11.977 18.9856 11.9068 18.9594 11.8416C18.9331 11.7763 18.8951 11.7173 18.8473 11.668L13.0599 5.47003C12.9207 5.32101 12.7555 5.20281 12.5737 5.12216C12.3918 5.04151 12.197 5 12.0002 5C11.8034 5 11.6085 5.04151 11.4267 5.12216C11.2448 5.20281 11.0796 5.32101 10.9405 5.47003L5.15233 11.668C5.10465 11.7174 5.06661 11.7764 5.04046 11.8417C5.01431 11.907 5.00056 11.9772 5.00002 12.0482C4.99947 12.1192 5.01214 12.1896 5.03729 12.2554C5.06244 12.3211 5.09956 12.3808 5.14648 12.431C5.19341 12.4812 5.2492 12.5209 5.3106 12.5478C5.37201 12.5746 5.4378 12.5881 5.50412 12.5875C5.57045 12.5868 5.636 12.572 5.69693 12.544C5.75787 12.5159 5.81297 12.4751 5.85903 12.424L11.6471 6.22677Z" fill="currentColor"/>
<path d="M11.9999 7.36157L17.4344 13.1808C17.4543 13.2022 17.4743 13.2222 17.495 13.2421V17.6627C17.495 18.4009 16.9355 19 16.2461 19H13.9981C13.8656 19 13.7386 18.9437 13.6449 18.8434C13.5512 18.7431 13.4986 18.607 13.4986 18.4651V15.2556C13.4986 15.1137 13.4459 14.9777 13.3523 14.8773C13.2586 14.777 13.1315 14.7207 12.999 14.7207H11.0008C10.8683 14.7207 10.7413 14.777 10.6476 14.8773C10.5539 14.9777 10.5013 15.1137 10.5013 15.2556V18.4651C10.5013 18.607 10.4486 18.7431 10.355 18.8434C10.2613 18.9437 10.1342 19 10.0017 19H7.75376C7.42254 19 7.10488 18.8592 6.87067 18.6084C6.63646 18.3576 6.50488 18.0174 6.50488 17.6627V13.2421C6.52561 13.2223 6.54582 13.2018 6.56549 13.1808L11.9999 7.36157Z" fill="currentColor"/>
</svg>
