<svg width="24" height="24" viewBox="0 0 24 24" fill="none" xmlns="http://www.w3.org/2000/svg">
<path d="M4 15.25L8.23303 10.7789C8.40446 10.5978 8.60798 10.4542 8.83196 10.3562C9.05595 10.2582 9.29602 10.2077 9.53846 10.2077C9.7809 10.2077 10.021 10.2582 10.245 10.3562C10.4689 10.4542 10.6725 10.5978 10.8439 10.7789L15.0769 15.25M13.8462 13.95L15.0023 12.7289C15.1737 12.5478 15.3772 12.4042 15.6012 12.3062C15.8252 12.2082 16.0653 12.1577 16.3077 12.1577C16.5501 12.1577 16.7902 12.2082 17.0142 12.3062C17.2382 12.4042 17.4417 12.5478 17.6131 12.7289L20 15.25M5.23077 18.5H18.7692C19.0957 18.5 19.4087 18.363 19.6395 18.1192C19.8703 17.8754 20 17.5448 20 17.2V6.8C20 6.45522 19.8703 6.12456 19.6395 5.88076C19.4087 5.63696 19.0957 5.5 18.7692 5.5H5.23077C4.90435 5.5 4.5913 5.63696 4.36048 5.88076C4.12967 6.12456 4 6.45522 4 6.8V17.2C4 17.5448 4.12967 17.8754 4.36048 18.1192C4.5913 18.363 4.90435 18.5 5.23077 18.5ZM13.8462 8.75H13.8527V8.75693H13.8462V8.75ZM14.1538 8.75C14.1538 8.8362 14.1214 8.91886 14.0637 8.97981C14.006 9.04076 13.9278 9.075 13.8462 9.075C13.7645 9.075 13.6863 9.04076 13.6286 8.97981C13.5709 8.91886 13.5385 8.8362 13.5385 8.75C13.5385 8.6638 13.5709 8.58114 13.6286 8.52019C13.6863 8.45924 13.7645 8.425 13.8462 8.425C13.9278 8.425 14.006 8.45924 14.0637 8.52019C14.1214 8.58114 14.1538 8.6638 14.1538 8.75Z" stroke="#8C8A8F" stroke-width="1.5" stroke-linecap="round" stroke-linejoin="round"/>
</svg>
