<svg width="24" height="24" viewBox="0 0 24 24" fill="none" xmlns="http://www.w3.org/2000/svg">
<path d="M12 5C12.1428 5 12.2798 5.05673 12.3807 5.15771C12.4817 5.25869 12.5385 5.39565 12.5385 5.53846V7.15385C12.5385 7.29666 12.4817 7.43361 12.3807 7.5346C12.2798 7.63558 12.1428 7.69231 12 7.69231C11.8572 7.69231 11.7202 7.63558 11.6193 7.5346C11.5183 7.43361 11.4615 7.29666 11.4615 7.15385V5.53846C11.4615 5.39565 11.5183 5.25869 11.6193 5.15771C11.7202 5.05673 11.8572 5 12 5ZM8.76923 12C8.76923 11.1431 9.10961 10.3214 9.7155 9.7155C10.3214 9.10961 11.1431 8.76923 12 8.76923C12.8569 8.76923 13.6786 9.10961 14.2845 9.7155C14.8904 10.3214 15.2308 11.1431 15.2308 12C15.2308 12.8569 14.8904 13.6786 14.2845 14.2845C13.6786 14.8904 12.8569 15.2308 12 15.2308C11.1431 15.2308 10.3214 14.8904 9.7155 14.2845C9.10961 13.6786 8.76923 12.8569 8.76923 12ZM16.9495 7.81149C17.0447 7.70941 17.0964 7.57441 17.094 7.43491C17.0915 7.29541 17.035 7.16231 16.9363 7.06366C16.8377 6.965 16.7046 6.90849 16.5651 6.90603C16.4256 6.90357 16.2906 6.95535 16.1885 7.05046L15.0463 8.192C14.9948 8.24165 14.9538 8.30104 14.9255 8.36673C14.8973 8.43241 14.8824 8.50306 14.8817 8.57455C14.8811 8.64605 14.8946 8.71696 14.9217 8.78315C14.9487 8.84933 14.9887 8.90947 15.0392 8.96005C15.0898 9.01063 15.1499 9.05065 15.216 9.07775C15.2822 9.10486 15.3531 9.11851 15.4246 9.11793C15.4961 9.11734 15.5667 9.10252 15.6324 9.07433C15.6982 9.04614 15.7576 9.00515 15.8073 8.95374L16.9495 7.81149ZM19 12C19 12.1428 18.9433 12.2798 18.8423 12.3807C18.7413 12.4817 18.6043 12.5385 18.4615 12.5385H16.8462C16.7033 12.5385 16.5664 12.4817 16.4654 12.3807C16.3644 12.2798 16.3077 12.1428 16.3077 12C16.3077 11.8572 16.3644 11.7202 16.4654 11.6193C16.5664 11.5183 16.7033 11.4615 16.8462 11.4615H18.4615C18.6043 11.4615 18.7413 11.5183 18.8423 11.6193C18.9433 11.7202 19 11.8572 19 12ZM16.1885 16.9495C16.2906 17.0447 16.4256 17.0964 16.5651 17.094C16.7046 17.0915 16.8377 17.035 16.9363 16.9363C17.035 16.8377 17.0915 16.7046 17.094 16.5651C17.0964 16.4256 17.0447 16.2906 16.9495 16.1885L15.808 15.0463C15.7584 14.9948 15.699 14.9538 15.6333 14.9255C15.5676 14.8973 15.4969 14.8824 15.4254 14.8817C15.354 14.8811 15.283 14.8946 15.2169 14.9217C15.1507 14.9487 15.0905 14.9887 15.0399 15.0392C14.9894 15.0898 14.9494 15.1499 14.9222 15.216C14.8951 15.2822 14.8815 15.3531 14.8821 15.4246C14.8827 15.4961 14.8975 15.5667 14.9257 15.6324C14.9539 15.6982 14.9949 15.7576 15.0463 15.8073L16.1885 16.9495ZM12 16.3077C12.1428 16.3077 12.2798 16.3644 12.3807 16.4654C12.4817 16.5664 12.5385 16.7033 12.5385 16.8462V18.4615C12.5385 18.6043 12.4817 18.7413 12.3807 18.8423C12.2798 18.9433 12.1428 19 12 19C11.8572 19 11.7202 18.9433 11.6193 18.8423C11.5183 18.7413 11.4615 18.6043 11.4615 18.4615V16.8462C11.4615 16.7033 11.5183 16.5664 11.6193 16.4654C11.7202 16.3644 11.8572 16.3077 12 16.3077ZM8.95446 15.8073C9.0525 15.7057 9.10671 15.5696 9.10542 15.4285C9.10412 15.2873 9.04743 15.1522 8.94755 15.0525C8.84767 14.9527 8.71259 14.8961 8.5714 14.8949C8.43022 14.8938 8.29423 14.9481 8.19272 15.0463L7.05046 16.1878C6.95233 16.2893 6.89799 16.4253 6.89915 16.5665C6.90031 16.7077 6.95687 16.8427 7.05666 16.9426C7.15645 17.0425 7.29148 17.0992 7.43266 17.1005C7.57384 17.1018 7.70989 17.0476 7.81149 16.9495L8.95374 15.808L8.95446 15.8073ZM7.69231 12C7.69231 12.1428 7.63558 12.2798 7.5346 12.3807C7.43361 12.4817 7.29666 12.5385 7.15385 12.5385H5.53846C5.39565 12.5385 5.25869 12.4817 5.15771 12.3807C5.05673 12.2798 5 12.1428 5 12C5 11.8572 5.05673 11.7202 5.15771 11.6193C5.25869 11.5183 5.39565 11.4615 5.53846 11.4615H7.15385C7.29666 11.4615 7.43361 11.5183 7.5346 11.6193C7.63558 11.7202 7.69231 11.8572 7.69231 12ZM8.19272 8.95374C8.29479 9.04886 8.4298 9.10064 8.5693 9.09818C8.7088 9.09572 8.84189 9.0392 8.94055 8.94055C9.0392 8.84189 9.09572 8.7088 9.09818 8.5693C9.10064 8.4298 9.04886 8.29479 8.95374 8.19272L7.81221 7.05046C7.7107 6.95233 7.57471 6.89799 7.43352 6.89915C7.29234 6.90031 7.15726 6.95687 7.05737 7.05666C6.95749 7.15645 6.9008 7.29148 6.89951 7.43266C6.89821 7.57384 6.95242 7.70989 7.05046 7.81149L8.19272 8.95374Z" fill="currentColor"/>
</svg>
