<svg width="24" height="24" viewBox="0 0 24 24" fill="none" xmlns="http://www.w3.org/2000/svg">
<path d="M4.82053 19C4.34905 19 3.94997 18.8367 3.6233 18.51C3.29663 18.1833 3.1333 17.7843 3.1333 17.3128V6.68723C3.1333 6.21574 3.29663 5.81667 3.6233 5.49C3.94997 5.16333 4.34905 5 4.82053 5H19.1794C19.6509 5 20.05 5.16333 20.3766 5.49C20.7033 5.81667 20.8666 6.21574 20.8666 6.68723V17.3128C20.8666 17.7843 20.7033 18.1833 20.3766 18.51C20.05 18.8367 19.6509 19 19.1794 19H4.82053ZM4.82053 17.6H14.5666V14.1539H4.5333V17.3128C4.5333 17.3846 4.56325 17.4504 4.62313 17.5102C4.68287 17.5701 4.74867 17.6 4.82053 17.6ZM15.9666 17.6H19.1794C19.2513 17.6 19.3171 17.5701 19.3768 17.5102C19.4367 17.4504 19.4666 17.3846 19.4666 17.3128V9.3078H15.9666V17.6ZM4.5333 12.7539H14.5666V9.3078H4.5333V12.7539Z" fill="currentColor"/>
</svg>
