<svg width="24" height="24" viewBox="0 0 24 24" fill="none" xmlns="http://www.w3.org/2000/svg">
<path fill-rule="evenodd" clip-rule="evenodd" d="M5.76414 5C5.86448 5 5.96385 5.01943 6.05656 5.05719C6.14927 5.09494 6.23351 5.15028 6.30446 5.22005C6.37542 5.28981 6.43171 5.37263 6.47011 5.46378C6.50851 5.55493 6.52827 5.65263 6.52827 5.75129V8.25558C6.5283 8.58729 6.62405 8.91218 6.8044 9.19252C6.98475 9.47286 7.24229 9.69713 7.54712 9.8393V5.75129C7.54712 5.55203 7.62763 5.36094 7.77093 5.22005C7.91424 5.07915 8.1086 5 8.31126 5C8.51392 5 8.70828 5.07915 8.85158 5.22005C8.99489 5.36094 9.07539 5.55203 9.07539 5.75129V9.8393C9.38022 9.69713 9.63777 9.47286 9.81812 9.19252C9.99847 8.91218 10.0942 8.58729 10.0942 8.25558V5.75129C10.0942 5.55203 10.1748 5.36094 10.3181 5.22005C10.4614 5.07915 10.6557 5 10.8584 5C11.061 5 11.2554 5.07915 11.3987 5.22005C11.542 5.36094 11.6225 5.55203 11.6225 5.75129V8.25558C11.6224 8.94381 11.4005 9.61431 10.9887 10.1708C10.5768 10.7273 9.99615 11.1411 9.33011 11.3529V17.9983C9.33011 18.264 9.22276 18.5187 9.03169 18.7066C8.84062 18.8945 8.58147 19 8.31126 19C8.04104 19 7.78189 18.8945 7.59082 18.7066C7.39975 18.5187 7.29241 18.264 7.29241 17.9983V11.3539C6.6262 11.1421 6.04544 10.7281 5.63355 10.1714C5.22166 9.61471 4.99986 8.94398 5 8.25558V5.75129C5 5.55203 5.08051 5.36094 5.22381 5.22005C5.36711 5.07915 5.56148 5 5.76414 5ZM16.0036 5C14.1982 5 13.0071 6.72997 13.0071 8.49499C13.0071 9.9014 13.7631 11.2858 14.9837 11.7906V17.9983C14.9837 18.264 15.091 18.5187 15.2821 18.7066C15.4732 18.8945 15.7323 19 16.0025 19C16.2728 19 16.5319 18.8945 16.723 18.7066C16.9141 18.5187 17.0214 18.264 17.0214 17.9983V11.7896C18.244 11.2858 19 9.9014 19 8.49399C19 6.72997 17.8079 5 16.0036 5Z" fill="currentColor"/>
</svg>
