<svg width="24" height="24" viewBox="0 0 24 24" fill="none" xmlns="http://www.w3.org/2000/svg">
<path d="M12.2051 8.29412H5.64103C5.2058 8.29412 4.7884 8.46765 4.48065 8.77653C4.17289 9.08541 4 9.50435 4 9.94118V13.2353C4 13.6721 4.17289 14.0911 4.48065 14.3999C4.7884 14.7088 5.2058 14.8824 5.64103 14.8824H6.46154V18.1765C6.46154 18.3949 6.54799 18.6044 6.70186 18.7588C6.85574 18.9132 7.06444 19 7.28205 19H8.92308C9.14069 19 9.34939 18.9132 9.50327 18.7588C9.65714 18.6044 9.74359 18.3949 9.74359 18.1765V14.8824H12.2051L16.3077 18.1765V5L12.2051 8.29412ZM20 11.5882C20 12.9965 19.2123 14.2729 17.9487 14.8824V8.29412C19.2041 8.91176 20 10.1882 20 11.5882Z" fill="currentColor"/>
</svg>
