<svg width="24" height="24" viewBox="0 0 24 24" fill="none" xmlns="http://www.w3.org/2000/svg">
<path d="M13.1121 6.11382C13.1121 5.1234 11.9141 4.62745 11.2142 5.32801L7.87825 8.664H6.446C5.60014 8.664 4.72759 9.15625 4.47405 10.0762C4.30205 10.703 4.21527 11.3501 4.21607 12C4.21607 12.6657 4.30577 13.3107 4.47554 13.9238C4.72833 14.843 5.60088 15.336 6.44674 15.336H7.87751L11.2135 18.672C11.9141 19.3726 13.1121 18.8766 13.1121 17.8862V6.11382ZM16.881 6.88925C16.9852 6.78513 17.1266 6.72665 17.2739 6.72665C17.4212 6.72665 17.5626 6.78513 17.6668 6.88925C20.4898 9.71151 20.4898 14.2878 17.6668 17.1107C17.5614 17.209 17.422 17.2624 17.278 17.2599C17.1339 17.2573 16.9965 17.199 16.8946 17.0971C16.7928 16.9953 16.7344 16.8578 16.7319 16.7138C16.7293 16.5697 16.7828 16.4303 16.881 16.3249C17.449 15.757 17.8996 15.0827 18.207 14.3407C18.5144 13.5986 18.6726 12.8032 18.6726 12C18.6726 11.1968 18.5144 10.4014 18.207 9.65933C17.8996 8.91726 17.449 8.243 16.881 7.67507C16.7769 7.57082 16.7184 7.4295 16.7184 7.28216C16.7184 7.13482 16.7769 6.9935 16.881 6.88925Z" fill="currentColor"/>
<path d="M14.915 8.85456C14.9667 8.8029 15.028 8.76191 15.0955 8.73395C15.1629 8.70598 15.2353 8.69159 15.3083 8.69159C15.3814 8.69159 15.4537 8.70598 15.5212 8.73395C15.5886 8.76191 15.65 8.8029 15.7016 8.85456C16.1147 9.26761 16.4424 9.75799 16.666 10.2977C16.8896 10.8374 17.0046 11.4159 17.0046 12C17.0046 12.5842 16.8896 13.1627 16.666 13.7024C16.4424 14.2421 16.1147 14.7325 15.7016 15.1455C15.5967 15.2467 15.4562 15.3027 15.3104 15.3014C15.1646 15.3 15.0252 15.2415 14.9222 15.1384C14.8191 15.0352 14.7607 14.8958 14.7595 14.75C14.7583 14.6042 14.8144 14.4638 14.9158 14.359C15.2256 14.0492 15.4713 13.6814 15.6389 13.2767C15.8066 12.8719 15.8929 12.4381 15.8929 12C15.8929 11.5619 15.8066 11.1281 15.6389 10.7234C15.4713 10.3187 15.2256 9.95089 14.9158 9.64112C14.8117 9.53687 14.7532 9.39555 14.7532 9.24821C14.7532 9.10087 14.8117 8.95956 14.9158 8.85531L14.915 8.85456Z" fill="currentColor"/>
</svg>
