<svg width="24" height="24" viewBox="0 0 24 24" fill="none" xmlns="http://www.w3.org/2000/svg">
<path d="M12.63 2C18.16 2 22.64 6.5 22.64 12C22.64 17.5 18.16 22 12.63 22C9.23155 22 6.24558 20.2938 4.43451 17.6893C4.3334 17.5439 4.36625 17.3459 4.50515 17.2361L5.53753 16.4193C5.69852 16.2919 5.93416 16.334 6.04996 16.5035C7.49114 18.613 9.89786 20 12.64 20C14.7617 20 16.7966 19.1571 18.2969 17.6569C19.7971 16.1566 20.64 14.1217 20.64 12C20.64 9.87827 19.7971 7.84344 18.2969 6.34315C16.7966 4.84285 14.7617 4 12.64 4C8.69353 4 5.42071 6.86298 4.76726 10.6161C4.7319 10.8191 4.892 11 5.09814 11H6.6407C6.94637 11 7.09924 11.3698 6.88281 11.5856L3.97244 14.4882C3.83849 14.6218 3.62165 14.6217 3.48789 14.4879L0.585295 11.5853C0.369307 11.3693 0.522277 11 0.82773 11H2.37941C2.55568 11 2.70264 10.8658 2.72545 10.691C3.36497 5.78978 7.55614 2 12.63 2ZM15.59 9.90393C15.59 10.0906 15.7443 10.2369 15.9178 10.3058C16.2574 10.4404 16.5 10.7677 16.5 11.16V15.77C16.5 16.27 16.09 16.69 15.58 16.69H10.05C9.54 16.69 9.13 16.27 9.13 15.77V11.16C9.13 10.7677 9.37262 10.4404 9.7122 10.3058C9.88573 10.2369 10.04 10.0906 10.04 9.90393V9.23C10.04 7.7 11.29 6.46 12.81 6.46C14.34 6.46 15.59 7.7 15.59 9.23V9.90393ZM12.81 7.86C12.06 7.86 11.44 8.47 11.44 9.23V9.89714C11.44 10.0865 11.5935 10.24 11.7829 10.24H13.8471C14.0365 10.24 14.19 10.0865 14.19 9.89714V9.23C14.19 8.47 13.57 7.86 12.81 7.86Z" fill="#8E49F9" stroke="#8E49F9" stroke-width="0.685714"/>
</svg>
