<svg width="24" height="24" viewBox="0 0 24 24" fill="none" xmlns="http://www.w3.org/2000/svg">
<path d="M15.6 17.1333V19H3V17.1333C3 17.1333 3 13.4 9.3 13.4C15.6 13.4 15.6 17.1333 15.6 17.1333ZM12.45 8.2667C12.45 7.62062 12.2653 6.98905 11.9191 6.45185C11.573 5.91465 11.081 5.49595 10.5055 5.24871C9.92986 5.00146 9.29651 4.93677 8.68546 5.06282C8.07442 5.18886 7.51315 5.49998 7.07261 5.95683C6.63208 6.41368 6.33207 6.99574 6.21053 7.62941C6.08898 8.26308 6.15136 8.9199 6.38978 9.5168C6.6282 10.1137 7.03194 10.6239 7.54995 10.9828C8.06797 11.3418 8.67699 11.5334 9.3 11.5334C10.1354 11.5334 10.9366 11.1892 11.5274 10.5766C12.1181 9.96396 12.45 9.13308 12.45 8.2667ZM15.546 13.4C16.0993 13.844 16.552 14.4084 16.8723 15.0534C17.1926 15.6984 17.3727 16.4084 17.4 17.1333V19H21V17.1333C21 17.1333 21 13.7454 15.546 13.4ZM14.7 5.00005C14.0805 4.99647 13.4747 5.18854 12.963 5.55071C13.5097 6.34287 13.8036 7.29257 13.8036 8.2667C13.8036 9.24083 13.5097 10.1905 12.963 10.9827C13.4747 11.3449 14.0805 11.5369 14.7 11.5334C15.5354 11.5334 16.3366 11.1892 16.9274 10.5766C17.5181 9.96396 17.85 9.13308 17.85 8.2667C17.85 7.40033 17.5181 6.56945 16.9274 5.95683C16.3366 5.34421 15.5354 5.00005 14.7 5.00005Z" fill="currentColor"/>
</svg>
