<svg width="24" height="24" viewBox="0 0 24 24" fill="none" xmlns="http://www.w3.org/2000/svg">
<path fill-rule="evenodd" clip-rule="evenodd" d="M12 5C8.13385 5 5 8.13385 5 12C5 15.8662 8.13385 19 12 19C15.8662 19 19 15.8662 19 12C19 8.13385 15.8662 5 12 5ZM10.1154 9.30769C9.72769 9.30769 9.52092 9.60851 9.44338 9.76287C9.35127 9.95704 9.30485 10.1697 9.30769 10.3846C9.30769 10.5986 9.35005 10.819 9.44338 11.0064C9.52092 11.1607 9.72697 11.4615 10.1154 11.4615C10.5031 11.4615 10.7098 11.1607 10.7874 11.0064C10.8807 10.8197 10.9231 10.5986 10.9231 10.3846C10.9231 10.1707 10.8807 9.95026 10.7874 9.76287C10.7098 9.60851 10.5038 9.30769 10.1154 9.30769ZM13.2126 9.76287C13.2902 9.60851 13.4962 9.30769 13.8846 9.30769C14.2723 9.30769 14.4791 9.60851 14.5566 9.76287C14.6499 9.94954 14.6923 10.1707 14.6923 10.3846C14.6923 10.5986 14.6499 10.819 14.5566 11.0064C14.4791 11.1607 14.273 11.4615 13.8846 11.4615C13.4969 11.4615 13.2902 11.1607 13.2126 11.0064C13.1205 10.8122 13.0741 10.5995 13.0769 10.3846C13.0769 10.1707 13.1193 9.95026 13.2126 9.76287ZM14.665 14.665C14.7179 14.6157 14.7604 14.5563 14.7898 14.4902C14.8192 14.4242 14.835 14.3529 14.8363 14.2806C14.8376 14.2083 14.8243 14.1365 14.7972 14.0694C14.7701 14.0024 14.7298 13.9415 14.6787 13.8903C14.6276 13.8392 14.5667 13.7989 14.4996 13.7718C14.4326 13.7447 14.3607 13.7314 14.2884 13.7327C14.2161 13.734 14.1448 13.7498 14.0788 13.7792C14.0127 13.8087 13.9533 13.8511 13.904 13.904C13.654 14.1541 13.3572 14.3525 13.0305 14.4878C12.7038 14.6231 12.3536 14.6928 12 14.6928C11.6464 14.6928 11.2962 14.6231 10.9695 14.4878C10.6428 14.3525 10.346 14.1541 10.096 13.904C9.99393 13.8089 9.85892 13.7571 9.71942 13.7596C9.57992 13.762 9.44682 13.8185 9.34817 13.9172C9.24951 14.0158 9.193 14.1489 9.19054 14.2884C9.18808 14.4279 9.23986 14.563 9.33497 14.665C10.0418 15.3718 11.0004 15.7688 12 15.7688C12.9996 15.7688 13.9582 15.3718 14.665 14.665Z" fill="currentColor"/>
</svg>
