<svg width="24" height="24" viewBox="0 0 24 24" fill="none" xmlns="http://www.w3.org/2000/svg">
<path d="M12.5921 11.7602V8.64474C12.5921 8.47697 12.5353 8.33632 12.4218 8.22276C12.3082 8.10934 12.1676 8.05263 11.9998 8.05263C11.8319 8.05263 11.6913 8.10934 11.578 8.22276C11.4646 8.33632 11.4079 8.47697 11.4079 8.64474V11.9424C11.4079 12.0353 11.4251 12.1253 11.4596 12.2124C11.4939 12.2995 11.5481 12.38 11.622 12.4539L14.326 15.1579C14.4352 15.2672 14.5726 15.3232 14.7381 15.3257C14.9036 15.3282 15.0436 15.2722 15.1579 15.1579C15.2722 15.0436 15.3294 14.9049 15.3294 14.7418C15.3294 14.5789 15.2722 14.4403 15.1579 14.326L12.5921 11.7602ZM12.0014 19.5C10.964 19.5 9.98895 19.3032 9.07618 18.9095C8.16342 18.5158 7.36947 17.9815 6.69434 17.3066C6.01921 16.6318 5.48467 15.8382 5.09072 14.9258C4.69691 14.0134 4.5 13.0386 4.5 12.0014C4.5 10.964 4.69684 9.98895 5.09053 9.07618C5.48421 8.16342 6.01849 7.36947 6.69336 6.69434C7.36822 6.01921 8.16184 5.48467 9.07421 5.09072C9.98658 4.69691 10.9614 4.5 11.9986 4.5C13.036 4.5 14.0111 4.69684 14.9238 5.09053C15.8366 5.48421 16.6305 6.01849 17.3057 6.69336C17.9808 7.36822 18.5153 8.16184 18.9093 9.07421C19.3031 9.98658 19.5 10.9614 19.5 11.9986C19.5 13.036 19.3032 14.0111 18.9095 14.9238C18.5158 15.8366 17.9815 16.6305 17.3066 17.3057C16.6318 17.9808 15.8382 18.5153 14.9258 18.9093C14.0134 19.3031 13.0386 19.5 12.0014 19.5Z" fill="currentColor"/>
</svg>
